# xmcd
#
# Track frame offsets: 
#        150
#        13362
#        28355
#        42157
#        55870
#        67152
#        80930
#        92957
#        106830
#        120257
#        134467
#        147705
#
# Disc length: 2123 seconds
#
# Revision: 0
# Processed by: cddbd v1.5.2PL0 Copyright (c) Steve Scherf et al.
# Submitted via: ExactAudioCopy v0.99pb5
#
DISCID=b708490c
DTITLE=FREDA PAYNE - BAND OF GOLD
DYEAR=1900
DGENRE=Soul
TTITLE0=BAND OF GOLD
TTITLE1=I LEFT SOME DREAMS BACK THERE
TTITLE2=DEEPER and DEEPER
TTITLE3=ROCK ME IN THE CRADLE
TTITLE4=UNHOOKED GENERATION
TTITLE5=LOVE ON BORROWED TIME
TTITLE6=THROUGH THE MEMORY OF MY MIND
TTITLE7=THIS GIRL IS A WOMAN NOW
TTITLE8=THE WORLD DON'T OWE YOU  A THING
TTITLE9=NOW IS THE TIME TO SAY GOODBYE
TTITLE10=HAPPY HEART
TTITLE11=THE EASIEST WAY TO FALL
EXTD=
EXTT0=
EXTT1=
EXTT2=
EXTT3=
EXTT4=
EXTT5=
EXTT6=
EXTT7=
EXTT8=
EXTT9=
EXTT10=
EXTT11=
PLAYORDER=
